# xmcd
# 
# Track frame offsets:
#     150
#     13015
#     24695
#     35847
#     47625
#     58492
#     70265
#     80247
#     90667
#     101350
#     112460
#     123555
#     135222
#     146735
#     157067
#     167815
#     180302
#     190657
#     201592
#     211922
#     222250
# 
# Disc length: 3103
# 
# Revision: 3
# Processed by: cddbd v1.5.2PL0 Copyright (c) Steve Scherf et al.
# Submitted via: fre:ac v1.0.17
# 
DISCID=430c1d15
DTITLE=Robert Johnson - The Complete Recordings [CD2]
DYEAR=1937
DGENRE=Blues
TTITLE0=Preachin' Blues (Up Jumped The Devil)
TTITLE1=If I Had Possession Over Judgment Day
TTITLE2=Stones In My Passway
TTITLE3=I'm A Steady Rollin' Man
TTITLE4=From Four Until Late
TTITLE5=Hell Hound On My Trail
TTITLE6=Little Queen Of Spades (Take 1)
TTITLE7=Little Queen Of Spades (Take 2)
TTITLE8=Malted Milk
TTITLE9=Drunken Hearted Man (Take 1)
TTITLE10=Drunken Hearted Man (Take 2)
TTITLE11=Me And The Devil Blues (Take 1)
TTITLE12=Me And The Devil Blues (Take 2)
TTITLE13=Stop Breakin' Down Blues (Take 1)
TTITLE14=Stop Breakin' Down Blues (Take 2)
TTITLE15=Traveling Riverside Blues
TTITLE16=Honeymoon Blues
TTITLE17=Love In Vain Blues (Take 1)
TTITLE18=Love In Vain Blues (Take 2)
TTITLE19=Milkcow's Calf Blues (Take 1)
TTITLE20=Milkcow's Calf Blues (Take 2)
EXTD=
EXTT0=
EXTT1=
EXTT2=
EXTT3=
EXTT4=
EXTT5=
EXTT6=
EXTT7=
EXTT8=
EXTT9=
EXTT10=
EXTT11=
EXTT12=
EXTT13=
EXTT14=
EXTT15=
EXTT16=
EXTT17=
EXTT18=
EXTT19=
EXTT20=
PLAYORDER=
